<?xml version="1.0" encoding="UTF-8"?>
<svg id="Layer_1" data-name="Layer 1" xmlns="http://www.w3.org/2000/svg" viewBox="0 0 1280 640">
  <defs>
    <style>
      .cls-1 {
        fill: #78201d;
      }

      .cls-2 {
        fill: #b82c29;
      }

      .cls-3 {
        fill: #151414;
      }
    </style>
  </defs>
  <rect class="cls-3" width="1280" height="640"/>
  <g>
    <g>
      <path class="cls-2" d="m510.86,381.75l82.82,73.6c-2.55-21.2-17.27-36.8-17.27-36.8l-65.55-36.8Z"/>
      <path class="cls-2" d="m633.08,486.46s5.45,26.05,6.92,47.54h0c1.47-21.5,6.92-47.55,6.92-47.55h-6.92s-6.92,0-6.92,0Z"/>
      <g>
        <path class="cls-1" d="m560.49,282.07c-2.76.2-25.76,1.52-40-15.26-14.1-16.6-13.79-44.08,2.92-64.49-19.03,18.75-38.06,37.5-57.09,56.25l52.18,48.11s25.47-7.29,41.99-24.61Z"/>
        <path class="cls-1" d="m719.62,282.07c2.76.2,25.76,1.52,40-15.26,14.1-16.6,13.79-44.08-2.92-64.49,19.03,18.75,38.06,37.5,57.09,56.25l-52.18,48.11s-25.47-7.29-41.99-24.61Z"/>
        <path class="cls-1" d="m687.8,295.44c13.7,8.38,21.53,23.55,20.06,38.96-1.89,19.87-18.27,30.05-20.06,31.12,17.43-10.03,34.86-20.06,52.3-30.09l-52.3-39.99Z"/>
        <path class="cls-1" d="m592.2,295.44c-13.7,8.38-21.53,23.55-20.06,38.96,1.89,19.87,18.27,30.05,20.06,31.12-17.43-10.03-34.86-20.06-52.3-30.09l52.3-39.99Z"/>
        <path class="cls-2" d="m776.97,313.46l54.39-51.93c-20.8-15.33-44.37-35.03-68.3-59.96-21.7-22.6-39.06-44.67-52.8-64.37,10.94,18.62,25.12,39.75,43.37,61.63,20.82,24.95,41.73,44.62,60.06,59.76-17.44,16.02-34.87,32.03-52.31,48.05-17.18-8.14-34.75-18.6-51.91-32.06-34.05-26.69-56.52-56.52-69.48-78.51h0c-12.96,21.99-35.43,51.82-69.48,78.51-17.16,13.45-34.73,23.91-51.91,32.06-17.44-16.02-34.87-32.03-52.31-48.05,18.33-15.14,39.24-34.82,60.06-59.76,18.26-21.88,32.44-43.01,43.37-61.63-13.73,19.7-31.1,41.77-52.8,64.37-23.93,24.92-47.5,44.63-68.3,59.96l54.39,51.93c-47.22,18.99-89.52,21.35-109.54,21.58,213.93,2.75,246.51,139.73,246.51,139.73,0,0,32.58-136.99,246.51-139.74-20.02-.22-62.32-2.59-109.54-21.58Zm-273.87-.02l15.39-6.73-15.39,6.73Zm187.54,49.86c-25.28,19.45-41.81,40.91-50.64,55.59h0c-8.83-14.67-25.35-36.13-50.64-55.58-18.26-14.05-35.94-22.6-49.46-27.87,17.1-10.59,37.67-25.45,58.49-45.93,17.26-16.98,31.56-33.72,41.61-48.26,10.05,14.54,24.34,31.27,41.61,48.25,20.82,20.48,41.39,35.34,58.49,45.93-13.52,5.27-31.2,13.82-49.46,27.87Zm70.88-56.6l15.39,6.73-15.39-6.73Z"/>
      </g>
      <path class="cls-2" d="m686.32,455.34l82.82-73.6-65.55,36.8s-14.72,15.6-17.27,36.8Z"/>
      <path class="cls-2" d="m648.68,178.51c-1.65-10.79-3.15-22.03-4.42-33.71-1.47-13.51-3.54-26.33-4.27-38.81-.73,12.48-2.8,25.3-4.27,38.81-1.27,11.67-2.76,22.92-4.42,33.71,2.56,0,6.13,0,8.68,0h8.68Z"/>
    </g>
    <path class="cls-2" d="m655.35,315.81c-8.15-11.15-12.7-21.92-15.31-29.83-2.6,7.91-7.16,18.68-15.31,29.83-5.61,7.67-11.47,13.53-16.49,17.86,5.26,4.1,11.89,10.1,18.25,18.45,6.2,8.14,10.99,15.93,13.54,21.98,2.55-6.05,7.34-13.84,13.54-21.98,6.36-8.35,13-14.35,18.25-18.45-5.02-4.33-10.88-10.19-16.49-17.86Z"/>
  </g>
</svg>