<?xml version="1.0" encoding="UTF-8"?>
<svg id="Layer_1" data-name="Layer 1" xmlns="http://www.w3.org/2000/svg" viewBox="0 0 1024 1024">
  <defs>
    <style>
      .cls-1 {
        fill: #78201d;
      }

      .cls-2 {
        fill: #b82c29;
      }

      .cls-3 {
        fill: #151414;
      }
    </style>
  </defs>
  <rect class="cls-3" width="1024" height="1024"/>
  <g>
    <g>
      <path class="cls-2" d="m310.83,608.19l129.02,114.65c-3.97-33.02-26.9-57.32-26.9-57.32l-102.11-57.32Z"/>
      <path class="cls-2" d="m501.22,771.3s8.48,40.59,10.78,74.06h0c2.29-33.49,10.78-74.07,10.78-74.07h-10.78s-10.78.01-10.78.01Z"/>
      <g>
        <path class="cls-1" d="m388.14,452.92c-4.3.31-40.13,2.36-62.32-23.77-21.96-25.87-21.48-68.67,4.55-100.46-29.64,29.21-59.29,58.41-88.93,87.62l81.29,74.95s39.67-11.35,65.41-38.33Z"/>
        <path class="cls-1" d="m636.02,452.92c4.3.31,40.13,2.36,62.32-23.77,21.96-25.87,21.48-68.67-4.55-100.46,29.64,29.21,59.29,58.41,88.93,87.62l-81.29,74.95s-39.67-11.35-65.41-38.33Z"/>
        <path class="cls-1" d="m586.46,473.74c21.35,13.06,33.54,36.69,31.25,60.69-2.95,30.95-28.46,46.81-31.25,48.48,27.16-15.63,54.31-31.25,81.47-46.88l-81.47-62.3Z"/>
        <path class="cls-1" d="m437.54,473.74c-21.35,13.06-33.54,36.69-31.25,60.69,2.95,30.95,28.46,46.81,31.25,48.48-27.16-15.63-54.31-31.25-81.47-46.88l81.47-62.3Z"/>
        <path class="cls-2" d="m725.36,501.81l84.72-80.89c-32.39-23.88-69.12-54.58-106.39-93.4-33.8-35.21-60.85-69.59-82.24-100.28,17.04,29,39.13,61.92,67.57,96,32.43,38.86,65.01,69.5,93.55,93.1-27.16,24.95-54.32,49.9-81.48,74.85-26.76-12.68-54.13-28.98-80.86-49.94-53.04-41.58-88.04-88.05-108.23-122.29h0c-20.19,34.26-55.19,80.73-108.23,122.31-26.73,20.96-54.1,37.25-80.86,49.94-27.16-24.95-54.32-49.9-81.48-74.85,28.55-23.59,61.12-54.23,93.55-93.1,28.44-34.08,50.53-67,67.57-96-21.39,30.69-48.44,65.07-82.24,100.28-37.28,38.83-74,69.52-106.39,93.4l84.72,80.89c-73.55,29.58-139.44,33.26-170.64,33.61,333.25,4.28,384,217.67,384,217.67,0,0,50.75-213.4,384-217.68-31.19-.35-97.08-4.03-170.64-33.61Zm-426.62-.03l23.97-10.48-23.97,10.48Zm292.14,77.67c-39.39,30.3-65.13,63.73-78.88,86.6h0c-13.75-22.86-39.49-56.28-78.88-86.59-28.44-21.88-55.98-35.21-77.04-43.41,26.63-16.49,58.68-39.64,91.11-71.54,26.89-26.45,49.16-52.52,64.82-75.17,15.65,22.65,37.92,48.71,64.82,75.16,32.43,31.9,64.47,55.05,91.11,71.54-21.07,8.2-48.61,21.53-77.04,43.41Zm110.41-88.16l23.97,10.48-23.97-10.48Z"/>
      </g>
      <path class="cls-2" d="m584.15,722.83l129.02-114.65-102.11,57.32s-22.93,24.31-26.9,57.32Z"/>
      <path class="cls-2" d="m525.53,291.59c-2.58-16.81-4.9-34.32-6.88-52.51-2.29-21.05-5.52-41.01-6.65-60.45-1.13,19.43-4.36,39.41-6.65,60.46-1.98,18.18-4.3,35.7-6.88,52.51,3.98,0,9.55-.01,13.53-.01h13.53Z"/>
    </g>
    <path class="cls-2" d="m535.91,505.47c-12.7-17.37-19.79-34.14-23.85-46.47-4.06,12.33-11.15,29.11-23.85,46.47-8.74,11.95-17.87,21.08-25.68,27.82,8.19,6.38,18.53,15.73,28.43,28.74,9.66,12.68,17.13,24.82,21.1,34.24,3.97-9.43,11.43-21.56,21.1-34.24,9.91-13.01,20.24-22.36,28.43-28.74-7.82-6.74-16.94-15.87-25.68-27.82Z"/>
  </g>
</svg>